<svg width="1281" height="583" viewBox="0 0 1281 583" fill="none" xmlns="http://www.w3.org/2000/svg">
<rect width="1280" height="580" transform="translate(1 1)" fill="white"/>
<rect x="1" y="1" width="1280" height="580" fill="#3498DB"/>
<path opacity="0.75" d="M1281 525C1261.11 525 1242.03 517.098 1227.97 503.033C1213.9 488.968 1206 469.891 1206 450C1206 430.109 1213.9 411.032 1227.97 396.967C1242.03 382.902 1261.11 375 1281 375L1281 450L1281 525Z" fill="#0A5D94" fill-opacity="0.7"/>
<path opacity="0.75" d="M1207.91 0.583294C1207.99 20.4743 1200.17 39.5848 1186.17 53.7106C1172.16 67.8364 1153.12 75.8204 1133.23 75.9062C1113.34 75.9921 1094.23 68.1727 1080.1 54.1683C1065.98 40.1639 1057.99 21.1216 1057.91 1.23055L1132.91 0.906923L1207.91 0.583294Z" fill="#0A5D94" fill-opacity="0.7"/>
<path opacity="0.75" d="M639.833 213.633C613.09 213.377 587.545 202.507 568.817 183.416C550.088 164.325 539.711 138.576 539.967 111.833C540.224 85.0905 551.093 59.5451 570.184 40.8166C589.276 22.0881 615.025 11.7107 641.767 11.9672L640.8 112.8L639.833 213.633Z" fill="#0A5D94" fill-opacity="0.7"/>
<path opacity="0.75" d="M565.8 374.787C585.727 374.685 604.878 382.504 619.041 396.522C633.203 410.541 641.216 429.611 641.318 449.538C641.419 469.465 633.601 488.616 619.582 502.779C605.564 516.941 586.493 524.954 566.566 525.056L566.183 449.921L565.8 374.787Z" fill="#0A5D94" fill-opacity="0.7"/>
<path opacity="0.75" d="M0.134522 237.383C20.0614 237.281 39.2125 245.1 53.3748 259.119C67.5371 273.137 75.5505 292.208 75.6521 312.135C75.7537 332.061 67.9352 351.213 53.9166 365.375C39.898 379.537 20.8276 387.551 0.900641 387.652L0.51758 312.518L0.134522 237.383Z" fill="#0A5D94" fill-opacity="0.7"/>
<path opacity="0.75" d="M730.563 582.245C730.148 562.322 737.665 543.05 751.46 528.67C765.254 514.289 784.196 505.977 804.119 505.563C824.042 505.148 843.314 512.665 857.694 526.46C872.075 540.254 880.387 559.196 880.801 579.119L805.682 580.682L730.563 582.245Z" fill="#0A5D94" fill-opacity="0.7"/>
<circle opacity="0.75" cx="157.518" cy="139.518" r="75.1355" transform="rotate(179.708 157.518 139.518)" fill="#0A5D94" fill-opacity="0.7"/>
<circle opacity="0.75" cx="1132.58" cy="330.579" r="44.3535" transform="rotate(179.708 1132.58 330.579)" fill="#0A5D94" fill-opacity="0.7"/>
<circle opacity="0.75" cx="126.579" cy="472.579" r="44.3535" transform="rotate(179.708 126.579 472.579)" fill="#0A5D94" fill-opacity="0.7"/>
<circle opacity="0.75" cx="188.428" cy="322.428" r="17.3399" transform="rotate(179.708 188.428 322.428)" fill="#0A5D94" fill-opacity="0.7"/>
<circle opacity="0.75" cx="257.428" cy="532.428" r="17.3399" transform="rotate(179.708 257.428 532.428)" fill="#0A5D94" fill-opacity="0.7"/>
<circle opacity="0.75" cx="70.4281" cy="232.428" r="17.3399" transform="rotate(179.708 70.4281 232.428)" fill="#0A5D94" fill-opacity="0.7"/>
<circle opacity="0.75" cx="527.428" cy="450.428" r="17.3399" transform="rotate(179.708 527.428 450.428)" fill="#0A5D94" fill-opacity="0.7"/>
<circle opacity="0.75" cx="1016.43" cy="46.428" r="17.3399" transform="rotate(179.708 1016.43 46.428)" fill="#0A5D94" fill-opacity="0.7"/>
<circle opacity="0.75" cx="945" cy="130.076" r="9.94973" transform="rotate(179.708 945 130.076)" fill="#0A5D94" fill-opacity="0.7"/>
<circle opacity="0.75" cx="692" cy="76.0003" r="9.94973" transform="rotate(179.708 692 76.0003)" fill="#0A5D94" fill-opacity="0.7"/>
<circle opacity="0.75" cx="1167" cy="122" r="9.94973" transform="rotate(179.708 1167 122)" fill="#0A5D94" fill-opacity="0.7"/>
<circle opacity="0.75" cx="1208" cy="250" r="9.94973" transform="rotate(179.708 1208 250)" fill="#0A5D94" fill-opacity="0.7"/>
<circle opacity="0.75" cx="1078" cy="200" r="9.94973" transform="rotate(179.708 1078 200)" fill="#0A5D94" fill-opacity="0.7"/>
<circle opacity="0.75" cx="1157" cy="438" r="9.94973" transform="rotate(179.708 1157 438)" fill="#0A5D94" fill-opacity="0.7"/>
<circle opacity="0.75" cx="719" cy="411" r="9.94973" transform="rotate(179.708 719 411)" fill="#0A5D94" fill-opacity="0.7"/>
<circle opacity="0.75" cx="665" cy="544" r="9.94973" transform="rotate(179.708 665 544)" fill="#0A5D94" fill-opacity="0.7"/>
<circle opacity="0.75" cx="537" cy="542" r="9.94973" transform="rotate(179.708 537 542)" fill="#0A5D94" fill-opacity="0.7"/>
<circle opacity="0.75" cx="435" cy="391" r="9.94973" transform="rotate(179.708 435 391)" fill="#0A5D94" fill-opacity="0.7"/>
<circle opacity="0.75" cx="302" cy="356" r="9.94973" transform="rotate(179.708 302 356)" fill="#0A5D94" fill-opacity="0.7"/>
<circle opacity="0.75" cx="672" cy="214" r="9.94973" transform="rotate(179.708 672 214)" fill="#0A5D94" fill-opacity="0.7"/>
<circle opacity="0.75" cx="719.477" cy="504.477" r="4.45432" transform="rotate(179.708 719.477 504.477)" fill="#0A5D94" fill-opacity="0.7"/>
<circle opacity="0.75" cx="495.477" cy="391.477" r="4.45432" transform="rotate(179.708 495.477 391.477)" fill="#0A5D94" fill-opacity="0.7"/>
<circle opacity="0.75" cx="532.477" cy="187.477" r="4.45432" transform="rotate(179.708 532.477 187.477)" fill="#0A5D94" fill-opacity="0.7"/>
<circle opacity="0.75" cx="449.477" cy="46.477" r="4.45432" transform="rotate(179.708 449.477 46.477)" fill="#0A5D94" fill-opacity="0.7"/>
<circle opacity="0.75" cx="56.4769" cy="127.477" r="4.45432" transform="rotate(179.708 56.4769 127.477)" fill="#0A5D94" fill-opacity="0.7"/>
<circle opacity="0.75" cx="225.477" cy="40.477" r="4.45432" transform="rotate(179.708 225.477 40.477)" fill="#0A5D94" fill-opacity="0.7"/>
<circle opacity="0.75" cx="131.477" cy="271.477" r="4.45432" transform="rotate(179.708 131.477 271.477)" fill="#0A5D94" fill-opacity="0.7"/>
<circle opacity="0.75" cx="37.4769" cy="416.477" r="4.45432" transform="rotate(179.708 37.4769 416.477)" fill="#0A5D94" fill-opacity="0.7"/>
<circle opacity="0.75" cx="98.4769" cy="552.477" r="4.45432" transform="rotate(179.708 98.4769 552.477)" fill="#0A5D94" fill-opacity="0.7"/>
<circle opacity="0.75" cx="203.477" cy="504.477" r="4.45432" transform="rotate(179.708 203.477 504.477)" fill="#0A5D94" fill-opacity="0.7"/>
<circle opacity="0.75" cx="244.477" cy="374.477" r="4.45432" transform="rotate(179.708 244.477 374.477)" fill="#0A5D94" fill-opacity="0.7"/>
<circle opacity="0.75" cx="316.477" cy="437.477" r="4.45432" transform="rotate(179.708 316.477 437.477)" fill="#0A5D94" fill-opacity="0.7"/>
<circle opacity="0.75" cx="265.477" cy="237.477" r="4.45432" transform="rotate(179.708 265.477 237.477)" fill="#0A5D94" fill-opacity="0.7"/>
<circle opacity="0.75" cx="704.477" cy="163.477" r="4.45432" transform="rotate(179.708 704.477 163.477)" fill="#0A5D94" fill-opacity="0.7"/>
<circle opacity="0.75" cx="754.477" cy="41.477" r="4.45432" transform="rotate(179.708 754.477 41.477)" fill="#0A5D94" fill-opacity="0.7"/>
<circle opacity="0.75" cx="885.477" cy="118.477" r="4.45432" transform="rotate(179.708 885.477 118.477)" fill="#0A5D94" fill-opacity="0.7"/>
<circle opacity="0.75" cx="965.477" cy="86.477" r="4.45432" transform="rotate(179.708 965.477 86.477)" fill="#0A5D94" fill-opacity="0.7"/>
<circle opacity="0.75" cx="1229.48" cy="77.477" r="4.45432" transform="rotate(179.708 1229.48 77.477)" fill="#0A5D94" fill-opacity="0.7"/>
<circle opacity="0.75" cx="919.477" cy="33.477" r="4.45432" transform="rotate(179.708 919.477 33.477)" fill="#0A5D94" fill-opacity="0.7"/>
<circle opacity="0.75" cx="1172.48" cy="219.477" r="4.45432" transform="rotate(179.708 1172.48 219.477)" fill="#0A5D94" fill-opacity="0.7"/>
<circle opacity="0.75" cx="1133.48" cy="154.477" r="4.45432" transform="rotate(179.708 1133.48 154.477)" fill="#0A5D94" fill-opacity="0.7"/>
<circle opacity="0.75" cx="1053.48" cy="168.477" r="4.45432" transform="rotate(179.708 1053.48 168.477)" fill="#0A5D94" fill-opacity="0.7"/>
<circle opacity="0.75" cx="1083.48" cy="107.477" r="4.45432" transform="rotate(179.708 1083.48 107.477)" fill="#0A5D94" fill-opacity="0.7"/>
<circle opacity="0.75" cx="1262.48" cy="311.477" r="4.45432" transform="rotate(179.708 1262.48 311.477)" fill="#0A5D94" fill-opacity="0.7"/>
<circle opacity="0.75" cx="1206.48" cy="369.477" r="4.45432" transform="rotate(179.708 1206.48 369.477)" fill="#0A5D94" fill-opacity="0.7"/>
<circle opacity="0.75" cx="1198.48" cy="302.477" r="4.45432" transform="rotate(179.708 1198.48 302.477)" fill="#0A5D94" fill-opacity="0.7"/>
<circle opacity="0.75" cx="1074.48" cy="411.477" r="4.45432" transform="rotate(179.708 1074.48 411.477)" fill="#0A5D94" fill-opacity="0.7"/>
<circle opacity="0.75" cx="1222.48" cy="545.477" r="4.45432" transform="rotate(179.708 1222.48 545.477)" fill="#0A5D94" fill-opacity="0.7"/>
<circle opacity="0.75" cx="1104.48" cy="558.477" r="4.45432" transform="rotate(179.708 1104.48 558.477)" fill="#0A5D94" fill-opacity="0.7"/>
<circle opacity="0.75" cx="923.477" cy="545.477" r="4.45432" transform="rotate(179.708 923.477 545.477)" fill="#0A5D94" fill-opacity="0.7"/>
<circle opacity="0.75" cx="900.477" cy="448.477" r="4.45432" transform="rotate(179.708 900.477 448.477)" fill="#0A5D94" fill-opacity="0.7"/>
<circle opacity="0.75" cx="839.477" cy="379.477" r="4.45432" transform="rotate(179.708 839.477 379.477)" fill="#0A5D94" fill-opacity="0.7"/>
<circle opacity="0.75" cx="619.477" cy="326.477" r="4.45432" transform="rotate(179.708 619.477 326.477)" fill="#0A5D94" fill-opacity="0.7"/>
<circle opacity="0.75" cx="637.477" cy="260.477" r="4.45432" transform="rotate(179.708 637.477 260.477)" fill="#0A5D94" fill-opacity="0.7"/>
<circle opacity="0.75" cx="549.477" cy="341.477" r="4.45432" transform="rotate(179.708 549.477 341.477)" fill="#0A5D94" fill-opacity="0.7"/>
<circle opacity="0.75" cx="576" cy="240" r="9.94973" transform="rotate(179.708 576 240)" fill="#0A5D94" fill-opacity="0.7"/>
<circle opacity="0.75" cx="535" cy="29.0003" r="9.94973" transform="rotate(179.708 535 29.0003)" fill="#0A5D94" fill-opacity="0.7"/>
<circle opacity="0.75" cx="61.0004" cy="36.0003" r="9.94973" transform="rotate(179.708 61.0004 36.0003)" fill="#0A5D94" fill-opacity="0.7"/>
<circle opacity="0.75" cx="265" cy="122" r="9.94973" transform="rotate(179.708 265 122)" fill="#0A5D94" fill-opacity="0.7"/>
<circle opacity="0.75" cx="347" cy="185" r="9.94973" transform="rotate(179.708 347 185)" fill="#0A5D94" fill-opacity="0.7"/>
<circle opacity="0.75" cx="98.0004" cy="350" r="9.94973" transform="rotate(179.708 98.0004 350)" fill="#0A5D94" fill-opacity="0.7"/>
<circle opacity="0.75" cx="181" cy="257" r="9.94973" transform="rotate(179.708 181 257)" fill="#0A5D94" fill-opacity="0.7"/>
<circle opacity="0.75" cx="230" cy="468" r="9.94973" transform="rotate(179.708 230 468)" fill="#0A5D94" fill-opacity="0.7"/>
<circle opacity="0.75" cx="365.3" cy="75.3003" r="44.0761" transform="rotate(179.708 365.3 75.3003)" fill="#0A5D94" fill-opacity="0.7"/>
<circle opacity="0.75" cx="491.428" cy="76.428" r="17.3399" transform="rotate(179.708 491.428 76.428)" fill="#0A5D94" fill-opacity="0.7"/>
<circle opacity="0.75" cx="447.971" cy="154.971" r="29.8189" transform="rotate(179.708 447.971 154.971)" fill="#0A5D94" fill-opacity="0.7"/>
<circle opacity="0.75" cx="1126.43" cy="517.428" r="17.3399" transform="rotate(179.708 1126.43 517.428)" fill="#0A5D94" fill-opacity="0.7"/>
<circle opacity="0.75" cx="788.844" cy="121.844" r="45.6124" transform="rotate(179.708 788.844 121.844)" fill="#0A5D94" fill-opacity="0.7"/>
<circle opacity="0.75" cx="463.844" cy="266.844" r="45.6124" transform="rotate(179.708 463.844 266.844)" fill="#0A5D94" fill-opacity="0.7"/>
<path opacity="0.75" d="M970.276 504.465C970.148 479.274 990.465 458.749 1015.66 458.621C1040.85 458.492 1061.37 478.809 1061.5 504C1061.63 529.191 1041.31 549.716 1016.12 549.844C990.93 549.973 970.405 529.656 970.276 504.465Z" fill="#0A5D94" fill-opacity="0.7"/>
<circle opacity="0.75" cx="400.632" cy="490.632" r="63.3098" transform="rotate(179.708 400.632 490.632)" fill="#0A5D94" fill-opacity="0.7"/>
<circle opacity="0.75" cx="1225.43" cy="172.428" r="17.3399" transform="rotate(179.708 1225.43 172.428)" fill="#0A5D94" fill-opacity="0.7"/>
<path opacity="0.75" d="M308.192 303.593C308.113 288.156 320.563 275.579 336 275.5C351.437 275.421 364.014 287.871 364.093 303.308C364.172 318.745 351.722 331.322 336.285 331.401C320.848 331.48 308.271 319.03 308.192 303.593Z" fill="#0A5D94" fill-opacity="0.7"/>
</svg>
